<svg width="139" height="84" viewBox="0 0 139 84" fill="none" xmlns="http://www.w3.org/2000/svg">
<g clip-path="url(#clip0)">
<path d="M41.4043 64.8174L68.6573 47.1579L96.1171 66.074L70.0615 79.579L55.9155 76.7597L41.4043 64.8174Z" fill="#E6E6E6"/>
<path d="M69.0184 75.1579C68.9151 75.158 68.8128 75.1402 68.7172 75.1055L51.7549 68.8536V49.2843C51.7551 49.1112 51.8326 48.9453 51.9703 48.823C52.1081 48.7006 52.2949 48.6318 52.4897 48.6316H85.0307C85.2255 48.6318 85.4123 48.7006 85.5501 48.823C85.6878 48.9453 85.7653 49.1112 85.7655 49.2843V68.8673L85.7336 68.8794L69.3287 75.1024C69.2305 75.1391 69.125 75.158 69.0184 75.1579Z" fill="white"/>
<path d="M68.4099 69.2631C67.796 69.2641 67.1984 69.0949 66.7072 68.7811L66.6768 68.7617L60.2646 64.5779C59.9676 64.384 59.7184 64.1421 59.5311 63.8661C59.3438 63.5901 59.2222 63.2854 59.1731 62.9694C59.124 62.6533 59.1484 62.3321 59.245 62.0241C59.3416 61.7161 59.5084 61.4273 59.7359 61.1742C59.9634 60.9212 60.2472 60.7088 60.5711 60.5492C60.8949 60.3896 61.2525 60.2859 61.6234 60.244C61.9943 60.2022 62.3712 60.223 62.7326 60.3053C63.094 60.3876 63.4329 60.5298 63.7299 60.7237L67.8832 63.4377L77.6982 52.5294C77.9258 52.2764 78.2097 52.0641 78.5337 51.9046C78.8576 51.7451 79.2152 51.6415 79.5861 51.5998C79.957 51.5581 80.3339 51.579 80.6953 51.6614C81.0567 51.7438 81.3955 51.8861 81.6924 52.0801L81.6313 52.1507L81.6939 52.0811C82.2928 52.4734 82.6846 53.052 82.7835 53.6901C82.8823 54.3283 82.6801 54.9737 82.2212 55.4849L70.6764 68.3157C70.4094 68.6113 70.066 68.8506 69.673 69.0149C69.2799 69.1792 68.8477 69.2642 68.4099 69.2631Z" fill="#D56C00"/>
<path d="M96.8813 40.2723C96.8813 40.2723 91.2897 39.1479 91.9975 41.5373C92.7053 43.9267 97.3767 42.3806 97.3767 42.3806L96.8813 40.2723Z" fill="#FFB8B8"/>
<path d="M108.945 27.6514C109.015 27.5885 109.1 27.5454 109.192 27.5266C109.284 27.5077 109.38 27.5138 109.469 27.5443C109.558 27.5747 109.637 27.6284 109.698 27.6996C109.759 27.7708 109.799 27.857 109.815 27.9491L110.006 29.0512C110.006 29.0512 110.87 33.4596 110.131 36.2599C109.391 39.0601 108.866 42.7488 106.867 43.1417C105.156 43.478 98.6516 42.9455 96.8102 42.7848C96.6776 42.7732 96.5544 42.712 96.4656 42.6135C96.3769 42.5151 96.3291 42.3868 96.3322 42.2547L96.3666 40.6461C96.3693 40.5194 96.4184 40.398 96.5048 40.3046C96.5911 40.2113 96.7088 40.1524 96.8357 40.1389L104.283 39.3504C104.399 39.3382 104.508 39.2878 104.592 39.2072C104.676 39.1265 104.731 39.0202 104.747 38.9052C104.924 37.6473 105.497 33.7473 106.066 31.6969C106.525 30.04 108.035 28.4756 108.945 27.6514Z" fill="#575A89"/>
<path d="M139 81.1848H87.6094V81.4278H139V81.1848Z" fill="#3F3D56"/>
<path d="M104.106 74.668V78.0412L106.017 78.4628L107.292 77.8303L107.15 75.1599L104.106 74.668Z" fill="#FFB8B8"/>
<path d="M115.396 74.668V78.0412L117.307 78.4628L118.581 77.8303L118.439 75.1599L115.396 74.668Z" fill="#FFB8B8"/>
<path d="M107.928 47.2601C107.928 47.2601 105.379 52.3903 105.45 56.396C105.493 58.8139 105.375 61.232 105.096 63.6345L103.822 75.6517L107.928 75.8625L109.839 62.9317L113.519 52.9525L114.935 64.8292L115.289 76.7761H118.828C118.828 76.7761 120.456 65.4617 119.535 62.9317C119.535 62.9317 121.659 48.7359 119.96 48.0332C118.261 47.3304 107.928 47.2601 107.928 47.2601Z" fill="#2F2E41"/>
<path d="M105.38 77.1275C105.38 77.1275 104.672 74.5273 103.681 75.8625C102.69 77.1978 99.8592 79.4466 99.8592 79.4466C99.8592 79.4466 95.6124 81.6955 99.5053 82.2577C103.398 82.8199 103.823 81.5549 103.823 81.5549C103.823 81.5549 104.46 81.2035 105.026 81.4144C105.592 81.6252 108.07 81.5549 108.211 80.7116C108.353 79.8683 107.433 75.23 107.149 76.0734C106.866 76.9167 105.38 77.1275 105.38 77.1275Z" fill="#2F2E41"/>
<path d="M118.404 77.0573C118.404 77.0573 118.404 76.2842 117.059 76.2139C115.714 76.1437 115.502 77.0573 115.502 77.0573C115.502 77.0573 115.148 77.4086 115.077 78.4628C115.006 79.5169 115.077 82.2577 115.077 82.2577C115.077 82.2577 114.44 84.366 117.342 83.9443C120.244 83.5226 119.182 81.3441 119.182 81.3441L118.404 77.0573Z" fill="#2F2E41"/>
<path d="M113.237 21.047L112.883 24.9825L112.246 26.4583L113.945 28.8476L118.121 24.9825C118.121 24.9825 117.342 22.8742 117.838 21.6795L113.237 21.047Z" fill="#FFB8B8"/>
<path d="M122.722 27.7936L122.689 28.14L121.448 41.2866C121.448 41.2866 121.399 41.898 121.308 42.7132C121.155 44.092 120.883 46.0534 120.527 46.6276C119.961 47.5412 120.386 48.3142 120.386 48.3142C117.13 50.2116 107.504 47.4709 107.504 47.4709L109.698 38.7566C109.698 38.7566 107.716 29.691 107.929 28.8477C108.141 28.0044 112.6 24.9825 112.6 24.9825L112.732 25.3339C114.632 27.8638 116.564 25.6853 117.13 25.1933L118.262 24.2095L122.722 27.7936Z" fill="#575A89"/>
<path d="M108.166 51.9066C101.418 52.8155 94.9801 53.1482 89.0233 52.5886C86.9079 52.3757 84.8099 52.018 82.7442 51.518C78.9566 50.6278 74.3073 50.6279 69.1992 51.1018C66.0934 51.3764 63.0323 52.0211 60.0816 53.0218C56.1231 54.3823 51.7865 54.2645 47.1889 53.1255C45.302 52.6378 43.4836 51.9189 41.7755 50.9854C38.4142 49.192 34.4362 49.8413 30.1006 51.9066V35.8701C34.1483 34.1198 38.0915 33.8373 41.9095 35.3127C43.3013 35.8646 44.7404 36.2909 46.2093 36.5863C51.5153 37.616 56.9925 37.3704 62.1835 35.8701C69.2031 33.5085 76.5459 34.2426 83.982 35.8701C92.2665 37.6074 100.341 37.7099 108.166 35.8701V51.9066Z" fill="#3F3D56"/>
<path d="M51.3908 81.1848H0V81.4278H51.3908V81.1848Z" fill="#3F3D56"/>
<path d="M63.6033 6.05205L67.4678 3.83679L65.2366 -0.000155657L61.3722 2.21511L63.6033 6.05205Z" fill="#D56C00"/>
<path d="M49.2879 25.3689L53.1523 23.1537L50.9212 19.3167L47.0568 21.532L49.2879 25.3689Z" fill="#3F3D56"/>
<path d="M88.5652 20.2663L92.4297 18.051L90.1985 14.2141L86.3341 16.4293L88.5652 20.2663Z" fill="#D0CDE1"/>
<path d="M21.8839 51.4623L24.2206 62.2033L17.124 78.0138L21.2781 79.8184L29.24 61.6877L24.1503 45.7649L21.1213 46.5383L21.8839 51.4623Z" fill="#2F2E41"/>
<path d="M19.8076 48.5092C19.8076 48.5092 20.673 50.0559 22.577 51.3448C24.4809 52.6338 28.4619 61.1406 28.4619 61.1406L24.1348 78.326L30.1062 79.9587L33.3949 59.7657L26.6445 44.6425L19.8076 48.5092Z" fill="#2F2E41"/>
<path d="M17.644 77.4126C17.644 77.4126 16.7785 78.3578 17.1247 79.0452C17.4709 79.7326 17.644 81.5371 17.644 81.5371H18.4228V79.4749L20.9326 81.7949C20.9326 81.7949 26.731 82.3105 26.6444 81.7949C26.5579 81.2793 23.1827 80.0763 23.1827 80.0763L21.5384 77.5844L17.644 77.4126Z" fill="#2F2E41"/>
<path d="M25.2592 77.6384C25.2592 77.6384 24.3938 78.5836 24.7399 79.271C25.0861 79.9584 25.2592 81.7629 25.2592 81.7629H26.0381V79.7006L28.5478 82.0207C28.5478 82.0207 34.3462 82.5362 34.2597 82.0207C34.1731 81.5051 30.798 80.3021 30.798 80.3021L29.1536 77.8102L25.2592 77.6384Z" fill="#2F2E41"/>
<path d="M23.1822 24.9648C24.9985 24.9648 26.4708 23.5029 26.4708 21.6996C26.4708 19.8962 24.9985 18.4343 23.1822 18.4343C21.3659 18.4343 19.8936 19.8962 19.8936 21.6996C19.8936 23.5029 21.3659 24.9648 23.1822 24.9648Z" fill="#A0616A"/>
<path d="M20.4994 21.8715C20.4994 21.8715 20.2398 25.1368 18.5955 26.3397C16.9512 27.5427 16.9512 28.5739 16.9512 28.5739L23.615 31.5813L22.0572 28.3161C22.0572 28.3161 21.6245 28.1442 22.3168 27.2849C23.0092 26.4257 23.615 24.3634 23.615 24.3634L20.4994 21.8715Z" fill="#A0616A"/>
<path d="M27.2929 45.0291C25.4923 46.5899 23.4061 47.7923 21.1482 48.5707L19.5774 49.1122C19.5774 49.1122 16.256 45.1099 17.9332 41.9564C18.2778 41.2898 18.7705 40.7098 19.3742 40.2602L19.3395 40.1098L18.4975 36.4622L18.4222 36.1357L15.9124 35.5342C15.9124 35.5342 15.9046 35.5367 15.8899 35.5402C15.7021 35.5892 14.4291 35.8212 15.3932 32.8704C16.0345 30.907 16.4996 29.0375 16.7615 27.8948C16.7977 27.7352 16.8661 27.5846 16.9625 27.4519C17.0589 27.3193 17.1814 27.2074 17.3225 27.1229C17.4636 27.0385 17.6205 26.9833 17.7837 26.9606C17.9468 26.9379 18.113 26.9483 18.272 26.991C19.0756 27.2098 20.074 27.6253 20.6723 28.4022C21.7974 29.863 22.0246 28.3376 22.0246 28.3376C22.0246 28.3376 25.1726 31.8393 24.9995 33.386C24.9697 33.8009 24.9825 34.2178 25.0375 34.6302V34.6319C25.0583 34.8158 25.0834 35.0074 25.112 35.2033C25.3266 36.6504 25.742 38.332 25.8943 38.9231C25.9056 38.9652 25.9151 39.0022 25.9229 39.0331C25.9411 39.1044 25.9514 39.1431 25.9514 39.1431L27.2929 45.0291Z" fill="#575A89"/>
<path opacity="0.2" d="M22.8358 40.69L22.1435 43.01C22.1435 43.01 19.4883 42.3381 17.9331 41.9566C18.2777 41.29 18.7704 40.71 19.3741 40.2604L19.3395 40.11L18.4974 36.4624L18.4221 36.1358L15.9123 35.5344C15.9123 35.5344 15.9045 35.5369 15.8898 35.5404L15.7393 34.4173C15.7393 34.4173 20.0664 34.6751 20.326 35.7062C20.5857 36.7373 20.0664 37.7685 19.8068 37.9403C19.5472 38.1122 19.8068 37.9403 20.326 38.1981C20.8453 38.4559 20.153 38.1981 19.8068 38.7137C19.4606 39.2292 19.8933 38.7996 19.9799 39.0574C20.0664 39.3152 19.9799 38.9714 19.8933 39.4011C19.8068 39.8307 20.2395 39.487 20.326 39.487C20.4126 39.487 22.8358 40.69 22.8358 40.69Z" fill="black"/>
<path d="M22.0565 40.2603L27.6818 41.721C27.6818 41.721 30.7108 38.6276 32.3551 39.5729C33.9995 40.5181 29.4127 42.6662 29.4127 42.6662L27.7684 43.01L21.7969 42.3225L22.0565 40.2603Z" fill="#A0616A"/>
<path d="M15.7393 34.0734L16.0854 36.6512C16.0854 36.6512 15.8258 36.6512 16.0854 37.2527C16.3451 37.8542 16.0854 39.0571 16.0854 39.0571C16.0854 39.0571 15.5662 39.1431 15.9989 39.4009C16.4316 39.6586 16.8643 40.3461 16.6912 40.6038C16.5181 40.8616 16.172 41.2053 16.9509 41.3772C17.7298 41.549 22.1435 42.6661 22.1435 42.6661L22.8358 40.346C22.8358 40.346 20.4126 39.1431 20.326 39.1431C20.2395 39.1431 19.8068 39.4868 19.8933 39.0571C19.9799 38.6275 20.0664 38.9712 19.9799 38.7134C19.8933 38.4556 19.4606 38.8853 19.8068 38.3697C20.153 37.8542 20.8453 38.1119 20.326 37.8542C19.8068 37.5964 19.5472 37.7682 19.8068 37.5964C20.0664 37.4245 20.5857 36.3934 20.326 35.3623C20.0664 34.3311 15.7393 34.0734 15.7393 34.0734Z" fill="#575A89"/>
<path d="M22.424 27.47L22.6847 27.0583C22.807 26.8653 22.847 26.6321 22.796 26.4098C22.745 26.1876 22.6072 25.9945 22.4128 25.8731L20.4258 24.6324C20.2315 24.511 19.9965 24.4713 19.7727 24.5219C19.5488 24.5725 19.3544 24.7094 19.2322 24.9023L18.9714 25.3141C18.8245 25.3133 18.6799 25.3498 18.5511 25.4199C18.4223 25.4901 18.3137 25.5917 18.2355 25.7152L17.5938 26.7282C17.4716 26.9211 17.4316 27.1544 17.4826 27.3767C17.5336 27.5989 17.6714 27.792 17.8657 27.9133L20.5432 29.5853C20.7376 29.7067 20.9725 29.7464 21.1964 29.6958C21.4202 29.6451 21.6147 29.5083 21.7369 29.3153L22.3786 28.3023C22.4568 28.1788 22.5019 28.0376 22.5099 27.892C22.5178 27.7464 22.4883 27.6011 22.424 27.47Z" fill="#575A89"/>
<path d="M23.0681 21.6438C23.252 21.377 23.1714 21.0063 23.3031 20.7106C23.5098 20.2462 24.1196 20.1509 24.63 20.1204C24.9685 20.0855 25.3102 20.0946 25.6463 20.1475C25.7947 20.1757 25.9346 20.2377 26.0547 20.3287C26.1749 20.4197 26.2722 20.5372 26.3388 20.6719C26.4105 20.8238 26.403 20.3531 26.3694 19.7484C26.3355 19.1312 26.1052 18.5407 25.7117 18.0619C25.3181 17.583 24.7816 17.2406 24.1794 17.0839C24.1723 17.0821 24.1652 17.0803 24.1582 17.0785C23.5414 16.9215 22.9045 16.8016 22.2705 16.8601C21.6366 16.9187 20.9999 17.1744 20.5933 17.6609C20.4074 17.8832 20.2734 18.1474 20.0671 18.3511C19.7045 18.709 19.1769 18.8297 18.6912 18.9882C18.1348 19.1517 17.6196 19.4305 17.1797 19.8062C16.7383 20.1877 16.4661 20.7265 16.4221 21.3059C16.3956 21.9751 16.8076 22.6762 17.4955 22.8248C17.6151 22.8485 17.7275 22.8999 17.8234 22.9748C18.4709 23.4987 17.7052 24.0124 17.6964 24.5844C17.6892 25.0617 18.2166 25.3856 18.6962 25.4194C19.1449 25.4382 19.5861 25.3014 19.9444 25.0326C20.3027 24.7638 20.5557 24.3797 20.6599 23.946C20.7419 23.5561 20.6958 23.1525 20.6583 22.756C20.6155 22.3021 21.6232 21.2599 20.9557 22.0255C20.8255 22.1709 20.7357 22.3475 20.6951 22.5378C20.5719 23.1593 21.1388 23.383 21.491 23.7375C21.6843 23.9378 21.8172 24.1879 21.8745 24.4595C21.9319 24.731 21.9114 25.013 21.8156 25.2736C22.1195 25.0132 22.3224 24.6556 22.3892 24.2626C22.456 23.8696 22.3825 23.4657 22.1814 23.1207C22.0695 22.941 21.9236 22.7835 21.8178 22.6001C21.6528 22.3141 21.6203 21.6997 22.1011 21.7282C22.4443 21.7484 22.7942 22.0409 23.0681 21.6438Z" fill="#2F2E41"/>
<path d="M115.643 22.9447C117.637 22.9447 119.253 21.34 119.253 19.3606C119.253 17.3811 117.637 15.7765 115.643 15.7765C113.649 15.7765 112.033 17.3811 112.033 19.3606C112.033 21.34 113.649 22.9447 115.643 22.9447Z" fill="#FFB8B8"/>
<path opacity="0.2" d="M122.547 28.2807L121.306 41.4273C121.306 41.4273 121.257 42.0387 121.167 42.8539C118.531 43.4793 111.255 43.9572 111.255 43.9572L110.901 41.4273L118.97 39.2487C118.97 39.2487 117.979 33.7672 119.112 31.5183C119.389 30.9713 119.637 30.41 119.855 29.8369C120.053 29.3085 120.43 28.8646 120.921 28.5809C121.412 28.2971 121.987 28.1911 122.547 28.2807V28.2807Z" fill="black"/>
<path d="M111.679 41.0757C111.679 41.0757 106.088 39.9512 106.795 42.3406C107.503 44.73 112.175 43.184 112.175 43.184L111.679 41.0757Z" fill="#FFB8B8"/>
<path d="M120.526 27.4423L122.721 27.7937C122.721 27.7937 124.278 32.0103 123.995 34.8916C123.712 37.7729 123.782 41.4975 121.871 42.2003C119.96 42.9031 111.396 43.4653 111.396 43.4653L111.042 40.9353L119.111 38.7568C119.111 38.7568 118.12 33.2752 119.252 31.0264C120.385 28.7776 120.526 27.4423 120.526 27.4423Z" fill="#575A89"/>
<path d="M112.565 15.7205L111.872 15.4447C111.872 15.4447 113.322 13.859 115.341 13.9969L114.773 13.3763C114.773 13.3763 116.16 12.8248 117.422 14.2726C118.085 15.0337 118.852 15.9284 119.331 16.9362H120.074L119.764 17.6142L120.849 18.2921L119.735 18.1704C119.801 18.5416 119.811 18.9206 119.765 19.2949C119.717 19.6692 119.525 20.0105 119.229 20.2467C119.229 20.2467 118.368 18.4783 118.368 18.2025V18.892C118.368 18.892 117.674 18.2715 117.674 17.8578L117.296 18.3404H114.773L115.151 17.7199L113.701 17.9268L114.268 17.1684L112.022 20.3001C112.022 20.3001 110.736 16.7547 112.565 15.7205Z" fill="#2F2E41"/>
<path d="M69.1328 57.252C76.4311 57.252 82.3475 51.3777 82.3475 44.1313C82.3475 36.8849 76.4311 31.0105 69.1328 31.0105C61.8344 31.0105 55.918 36.8849 55.918 44.1313C55.918 51.3777 61.8344 57.252 69.1328 57.252Z" fill="#D56C00"/>
<path d="M75.6183 46.7388C75.6183 47.544 72.6409 49.5634 69.1945 49.5634C65.748 49.5634 63.1377 47.544 63.1377 46.7388C63.1377 45.9337 65.748 47.0122 69.1945 47.0122C72.6409 47.0122 75.6183 45.9337 75.6183 46.7388Z" fill="#D0CDE1"/>
<path d="M73.9048 41.8227C74.7157 41.8227 75.3731 41.17 75.3731 40.3648C75.3731 39.5597 74.7157 38.907 73.9048 38.907C73.0939 38.907 72.4365 39.5597 72.4365 40.3648C72.4365 41.17 73.0939 41.8227 73.9048 41.8227Z" fill="#3F3D56"/>
<path d="M64.3609 41.8227C65.1718 41.8227 65.8292 41.17 65.8292 40.3648C65.8292 39.5597 65.1718 38.907 64.3609 38.907C63.55 38.907 62.8926 39.5597 62.8926 40.3648C62.8926 41.17 63.55 41.8227 64.3609 41.8227Z" fill="#3F3D56"/>
<path d="M65.2176 40.3648C65.623 40.3648 65.9517 40.0385 65.9517 39.6359C65.9517 39.2333 65.623 38.907 65.2176 38.907C64.8121 38.907 64.4834 39.2333 64.4834 39.6359C64.4834 40.0385 64.8121 40.3648 65.2176 40.3648Z" fill="#D0CDE1"/>
<path d="M72.6814 40.3648C73.0869 40.3648 73.4156 40.0385 73.4156 39.6359C73.4156 39.2333 73.0869 38.907 72.6814 38.907C72.276 38.907 71.9473 39.2333 71.9473 39.6359C71.9473 40.0385 72.276 40.3648 72.6814 40.3648Z" fill="#D0CDE1"/>
<path d="M69.3777 31.8605C72.2835 31.8605 74.6391 29.5216 74.6391 26.6365C74.6391 23.7513 72.2835 21.4125 69.3777 21.4125C66.4718 21.4125 64.1162 23.7513 64.1162 26.6365C64.1162 29.5216 66.4718 31.8605 69.3777 31.8605Z" fill="#D56C00"/>
<path d="M67.6878 27.1775C69.5459 28.2759 69.6126 31.5672 69.6126 31.5672C69.6126 31.5672 66.6667 33.0778 64.8086 31.9795C62.9505 30.8812 62.8838 27.5898 62.8838 27.5898C62.8838 27.5898 65.8297 26.0792 67.6878 27.1775Z" fill="#3F3D56"/>
<path d="M74.2616 31.3837C72.5824 32.7365 69.4479 31.6632 69.4479 31.6632C69.4479 31.6632 69.0361 28.3967 70.7154 27.044C72.3946 25.6912 75.5291 26.7644 75.5291 26.7644C75.5291 26.7644 75.9409 30.0309 74.2616 31.3837Z" fill="#3F3D56"/>
</g>
<defs>
<clipPath id="clip0">
<rect width="139" height="84" fill="white"/>
</clipPath>
</defs>
</svg>
